# File created by Blade
# Date/Time:  Tue Sep 30 19:36:22 2014
#---------------------------------------------------------
:version 1.10
:name HOM
:units
  mass 1.0
  length 1.000000
  angle deg
:documentation
     Acclaim Skeleton File
:root
   axis xyz
   order TX TY TZ RX RY RZ
   position 0.000000 0.000000 0.000000
   orientation 0 0 0
:bonedata
   begin
      id 1
      name Spine_dum
      direction 0.000000 1.000000 0.000000
      length 3.241213
      axis 0.0 0.0 0.0 xyz
   end
   begin
      id 2
      name LeftUpLeg_dum
      direction 1.000000 0.000000 0.000000
      length 3.434019
      axis 0.0 0.0 0.0 xyz
   end
   begin
      id 3
      name RightUpLeg_dum
      direction -1.000000 0.000000 0.000000
      length 3.434019
      axis 0.0 0.0 0.0 xyz
   end
   begin
      id 4
      name Spine
      direction 0.000000 1.000000 0.000000
      length 0.000000
      axis 0.0 0.0 0.0 xyz
      dof rx ry rz
   end
   begin
      id 5
      name Spine_dum1
      direction 0.000000 1.000000 0.000000
      length 18.382958
      axis 0.0 0.0 0.0 xyz
   end
   begin
      id 6
      name Spine_dum2
      direction 0.000000 1.000000 0.000000
      length 12.828261
      axis 0.0 0.0 0.0 xyz
   end
   begin
      id 7
      name Spine_dum3
      direction 0.000000 1.000000 0.000000
      length 12.828261
      axis 0.0 0.0 0.0 xyz
   end
   begin
      id 8
      name Head
      direction 0.000000 1.000000 0.000000
      length 4.527550
      axis 0.0 0.0 0.0 xyz
      dof rx ry rz
   end
   begin
      id 9
      name LeftShoulder
      direction 1.000000 0.000000 0.000000
      length 7.748055
      axis 0.0 0.0 -90.0 xyz
      dof rx ry rz
   end
   begin
      id 10
      name LeftArm
      direction 1.000000 0.000000 0.000000
      length 10.635614
      axis 0.0 0.0 -90.0 xyz
      dof rx ry rz
   end
   begin
      id 11
      name LeftForeArm
      direction 1.000000 0.000000 0.000000
      length 8.346755
      axis 0.0 0.0 -90.0 xyz
      dof ry rz rx
   end
   begin
      id 12
      name LeftHand
      direction 0.000000 0.000000 0.000000
      length 0.000000
      axis 0.0 0.0 -90.0 xyz
      dof rx ry rz
   end
   begin
      id 13
      name LeftHand_dum1
      direction 0.000000 0.000000 0.000000
      length 0.000000
      axis 0.0 0.0 -90.0 xyz
   end
   begin
      id 14
      name LeftHand_dum2
      direction 1.000000 0.000000 0.000000
      length 3.937000
      axis 0.0 0.0 -90.0 xyz
   end
   begin
      id 15
      name LeftHandThumb1
      direction 0.000000 0.000000 1.000000
      length 3.937000
      axis 0.0 0.0 -90.0 xyz
      dof rx rz ry
   end
   begin
      id 16
      name RightShoulder
      direction -1.000000 0.000000 0.000000
      length 7.748055
      axis 0.0 0.0 90.0 xyz
      dof rx ry rz
   end
   begin
      id 17
      name RightArm
      direction -1.000000 0.000000 0.000000
      length 10.635614
      axis 0.0 0.0 90.0 xyz
      dof rx ry rz
   end
   begin
      id 18
      name RightForeArm
      direction -1.000000 0.000000 0.000000
      length 8.346755
      axis 0.0 0.0 90.0 xyz
      dof ry rz rx
   end
   begin
      id 19
      name RightHand
      direction 0.000000 0.000000 0.000000
      length 0.000000
      axis 0.0 0.0 90.0 xyz
      dof rx ry rz
   end
   begin
      id 20
      name RightHand_dum1
      direction 0.000000 0.000000 0.000000
      length 0.000000
      axis 0.0 0.0 90.0 xyz
   end
   begin
      id 21
      name RightHand_dum2
      direction -1.000000 0.000000 0.000000
      length 3.937000
      axis 0.0 0.0 90.0 xyz
   end
   begin
      id 22
      name RightHandThumb1
      direction 0.000000 0.000000 1.000000
      length 3.937000
      axis 0.0 0.0 90.0 xyz
      dof rx rz ry
   end
   begin
      id 23
      name LeftUpLeg
      direction 0.000000 -1.000000 0.000000
      length 15.713025
      axis 0.0 0.0 0.0 xyz
      dof rx ry rz
   end
   begin
      id 24
      name LeftLeg
      direction 0.000000 -1.000000 0.000000
      length 14.435119
      axis 0.0 0.0 0.0 xyz
      dof rx ry rz
   end
   begin
      id 25
      name LeftFoot
      direction 0.000000 -0.258819 0.965926
      length 4.938895
      axis 15.0 0.0 0.0 xyz
      dof rx ry rz
   end
   begin
      id 26
      name LeftToeBase
      direction 0.000000 0.000000 1.000000
      length 2.952750
      axis 0.0 0.0 0.0 xyz
      dof rx ry rz
   end
   begin
      id 27
      name RightUpLeg
      direction 0.000000 -1.000000 0.000000
      length 15.713025
      axis 0.0 0.0 0.0 xyz
      dof rx ry rz
   end
   begin
      id 28
      name RightLeg
      direction 0.000000 -1.000000 0.000000
      length 14.435119
      axis 0.0 0.0 0.0 xyz
      dof rx ry rz
   end
   begin
      id 29
      name RightFoot
      direction 0.000000 -0.258819 0.965926
      length 4.938895
      axis 15.0 0.0 0.0 xyz
      dof rx ry rz
   end
   begin
      id 30
      name RightToeBase
      direction 0.000000 0.000000 1.000000
      length 2.952750
      axis 0.0 0.0 0.0 xyz
      dof rx ry rz
   end
:hierarchy
   begin
      root Spine_dum LeftUpLeg_dum RightUpLeg_dum
      Spine_dum Spine
      LeftUpLeg_dum LeftUpLeg
      RightUpLeg_dum RightUpLeg
      Spine Spine_dum1 Spine_dum2 Spine_dum3
      Spine_dum1 Head
      Spine_dum2 LeftShoulder
      Spine_dum3 RightShoulder
      LeftShoulder LeftArm
      LeftArm LeftForeArm
      LeftForeArm LeftHand
      LeftHand LeftHand_dum1 LeftHand_dum2
      LeftHand_dum1 LeftHandThumb1
      RightShoulder RightArm
      RightArm RightForeArm
      RightForeArm RightHand
      RightHand RightHand_dum1 RightHand_dum2
      RightHand_dum1 RightHandThumb1
      LeftUpLeg LeftLeg
      LeftLeg LeftFoot
      LeftFoot LeftToeBase
      RightUpLeg RightLeg
      RightLeg RightFoot
      RightFoot RightToeBase
   end

# File created by Blade
# Date/Time:  Tue Sep 23 19:18:47 2014
# Frame Rate: 120.000 fps
#------------------------------------------------------
:FULLY-SPECIFIED
:DEGREES
491
root -0.062682 34.607969 -0.378670 107.825739 14.213498 -40.251711
Spine -70.618324 1.050421 34.522992
Head -15.274850 19.247788 45.854523
LeftShoulder -15.858802 33.353765 37.405312
LeftArm 90.535920 -59.010795 -93.870427
LeftForeArm -4.595420 -0.000000 107.976989
LeftHand -62.380897 -0.000000 7.321664
LeftHandThumb1 -26.253704 0.000000 33.147579
RightShoulder -37.357775 -40.388937 -0.981096
RightArm 37.077827 53.502154 71.546008
RightForeArm 92.422744 0.000000 -3.288759
RightHand 1.807248 -0.000000 23.652606
RightHandThumb1 -24.326973 -0.000000 -32.862282
LeftUpLeg -117.744458 36.743422 -11.138725
LeftLeg -6.063926 -0.000000 0.000000
LeftFoot 3.357048 4.210328 7.319213
LeftToeBase 1.840255 -0.000000 -0.000000
RightUpLeg 5.169305 -2.555686 -35.142684
RightLeg 59.102460 -0.000000 -0.000000
RightFoot 33.714422 2.407093 -2.252561
RightToeBase 35.429276 -0.000000 -0.000000
492
root -0.086275 34.633724 -0.343441 107.306638 14.359051 -40.710756
Spine -70.208481 1.086589 34.663855
Head -14.897709 19.138897 46.188122
LeftShoulder -15.759488 33.364803 37.543161
LeftArm 90.130059 -58.938731 -94.087567
LeftForeArm -4.323756 -0.000000 108.156425
LeftHand -62.464596 -0.000000 7.518823
LeftHandThumb1 -26.253704 0.000000 33.147579
RightShoulder -37.390159 -40.401298 -0.763664
RightArm 37.156766 53.548092 71.785707
RightForeArm 92.887386 -0.000000 -3.152979
RightHand 1.708701 -0.000000 23.787183
RightHandThumb1 -24.326973 -0.000000 -32.862282
LeftUpLeg -117.629488 37.184663 -11.273165
LeftLeg -5.909391 -0.000000 0.000000
LeftFoot 3.223669 4.106275 7.174496
LeftToeBase 1.898601 -0.000000 -0.000000
RightUpLeg 4.995335 -2.862983 -35.276187
RightLeg 59.479947 -0.000000 -0.000000
RightFoot 33.714439 2.496521 -2.321986
RightToeBase 35.458083 -0.000000 -0.000000
493
root -0.110839 34.659753 -0.307125 106.794773 14.509761 -41.196905
Spine -69.781596 1.154408 34.820737
Head -14.549451 19.131421 46.469216
LeftShoulder -15.716211 33.420273 37.622461
LeftArm 89.830918 -58.878194 -94.394799
LeftForeArm -3.972838 -0.000000 108.320840
LeftHand -62.524167 0.000000 7.733579
LeftHandThumb1 -26.253704 0.000000 33.147579
RightShoulder -37.517719 -40.413857 -0.469120
RightArm 37.404527 53.596497 72.135115
RightForeArm 93.213406 -0.000000 -3.015424
RightHand 1.619768 0.000000 23.933388
RightHandThumb1 -24.326973 -0.000000 -32.862282
LeftUpLeg -117.509369 37.683300 -11.390395
LeftLeg -5.759478 -0.000000 0.000000
LeftFoot 3.116612 4.120226 7.207946
LeftToeBase 1.780178 -0.000000 -0.000000
RightUpLeg 4.786559 -3.098777 -35.364410
RightLeg 59.858545 -0.000000 -0.000000
RightFoot 33.690036 2.607601 -2.279473
RightToeBase 35.404897 -0.000000 -0.000000
494
root -0.133297 34.685421 -0.267632 106.279807 14.617568 -41.702876
Spine -69.380928 1.226470 34.956460
Head -14.140918 19.016878 46.754883
LeftShoulder -15.624595 33.618189 37.702447
LeftArm 89.833585 -58.825863 -95.045646
LeftForeArm -3.580953 0.000000 108.536549
LeftHand -62.708282 0.000000 7.831485
LeftHandThumb1 -26.253704 0.000000 33.147579
RightShoulder -37.655947 -40.727169 0.015632
RightArm 38.262774 54.020557 73.140799
RightForeArm 93.382327 0.000000 -2.846208
RightHand 1.597656 -0.000000 24.079297
RightHandThumb1 -24.326973 -0.000000 -32.862282
LeftUpLeg -117.441532 38.144178 -11.638797
LeftLeg -5.633408 -0.000000 0.000000
LeftFoot 2.952400 3.906411 7.060180
LeftToeBase 1.873781 -0.000000 -0.000000
RightUpLeg 4.543235 -3.346094 -35.489644
RightLeg 60.237964 -0.000000 -0.000000
RightFoot 33.738634 2.766117 -2.246652
RightToeBase 35.318718 -0.000000 -0.000000
